# xmcd
#
# Track frame offsets:
#	150
#	15825
#	24175
#	35130
#	45450
#	56773
#	69948
#	81778
#	90460
#	102145
#	114283
#	124468
#
# Disc length: 1759 seconds
#
# Revision: 2
# Processed by: cddbd v1.5.1PL0 Copyright (c) Steve Scherf et al.
# Submitted via: audiograbber 1.83.01
#
DISCID=8906dd0c
DTITLE=Big Joe Williams - Blues From The South Side
DYEAR=1900
DGENRE=
TTITLE0=Nobody Knows You When You're Down and Out
TTITLE1=Baby Please Don't Go
TTITLE2=Sinking Blues
TTITLE3=Put On Your Nitecap Baby
TTITLE4=Bye Bye Baby Blues
TTITLE5=Don't Want No Big Fat Woman
TTITLE6=Ride In My New Car With Me Blues
TTITLE7=Going Away, Won't Be Back Till Fall
TTITLE8=Sloppy Drunk Blues
TTITLE9=Sugar Mama
TTITLE10=44 Blues
TTITLE11=Terraplane Blues
EXTD=
EXTT0=
EXTT1=
EXTT2=
EXTT3=
EXTT4=
EXTT5=
EXTT6=
EXTT7=
EXTT8=
EXTT9=
EXTT10=
EXTT11=
PLAYORDER=
